# xmcd CD database file
#
# Track frame offsets:
#	150
#	17891
#	28460
#	46989
#	58379
#	74623
#	93816
#	111868
#	127824
#	150129
#	165847
#	183571
#	199144
#	217872
#
# Disc length: 3121 seconds
#
# Revision: 2
# Processed by: cddbd v1.5.2PL0 Copyright (c) Steve Scherf et al.
# Submitted via: CDex 1.51
#
DISCID=ba0c2f0e
DTITLE=Fiddlers' Sons - Eagles Fly
DYEAR=2004
DGENRE=Folk
TTITLE0=Song For Alex (Eagle Fly)
TTITLE1=Fiddle Set
TTITLE2=Gaspereaux
TTITLE3=Annie Beatons Hollow
TTITLE4=Carolina
TTITLE5=Remember Bill
TTITLE6=Old Grey House
TTITLE7=Flat River Maiden
TTITLE8=Maggie's Collection
TTITLE9=Flute Tunes
TTITLE10=Leave Him Be
TTITLE11=Fourteen Years
TTITLE12=My Hometown
TTITLE13=What The Summer Months Will Bring
EXTD=YEAR: 2004
EXTT0=
EXTT1=
EXTT2=
EXTT3=
EXTT4=
EXTT5=
EXTT6=
EXTT7=
EXTT8=
EXTT9=
EXTT10=
EXTT11=
EXTT12=
EXTT13=
PLAYORDER=
